# xmcd
#
# Track frame offsets: 
#        150
#        12193
#        24853
#        37280
#        48742
#        59423
#        71953
#        82578
#        95048
#        107475
#
# Disc length: 1606 seconds
#
# Revision: 1
# Processed by: cddbd v1.4PL0 Copyright (c) Steve Scherf et al.
# Submitted via: ExactAudioCopy v0.90b4
#
DISCID=8006440a
DTITLE=George Jones - Sings The Great Songs Of Leon Payne
DYEAR=1900
DGENRE=Country
TTITLE0=They'll Never Take Her Love From Me
TTITLE1=Brothers Of A Bottle
TTITLE2=Blue Side Of Lonesome
TTITLE3=There's No Justice
TTITLE4=With Half A Heart
TTITLE5=Lifetime To Regret
TTITLE6=Let A Little Lovin' Come In
TTITLE7=Take Me
TTITLE8=The Selfishness In Man
TTITLE9=Things Have Gone To Pieces
EXTD=
EXTT0=
EXTT1=
EXTT2=
EXTT3=
EXTT4=
EXTT5=
EXTT6=
EXTT7=
EXTT8=
EXTT9=
PLAYORDER=
